<svg width="28" height="28" viewBox="0 0 28 28" fill="none" xmlns="http://www.w3.org/2000/svg">
<path d="M24.3284 6.00354L18.4965 0.171609C18.3909 0.0656797 18.2449 0 18.0834 0H5.83335C4.54705 0 3.5 1.04645 3.5 2.33335V25.6667C3.5 26.9536 4.54705 28 5.83335 28H22.1667C23.453 28 24.5 26.9536 24.5 25.6666V6.41665C24.5 6.2551 24.4343 6.10914 24.3284 6.00354ZM7.58335 5.83335H14.5834C14.9058 5.83335 15.1667 6.09427 15.1667 6.4167C15.1667 6.73914 14.9058 7.00006 14.5834 7.00006H7.58335C7.26091 7.00006 7 6.73914 7 6.4167C7 6.09427 7.26091 5.83335 7.58335 5.83335ZM16.159 21.9992C13.6195 24.5 13.0281 24.5 12.8334 24.5C12.1087 24.5 11.849 23.6683 11.5801 22.7773C11.1733 23.6028 10.7051 24.5 9.91665 24.5C9.51103 24.5 9.02568 24.2329 8.56882 23.8261C8.35122 24.0425 8.13471 24.2323 7.93308 24.3832C7.82824 24.4619 7.7052 24.5 7.5833 24.5C7.40671 24.5 7.23122 24.4197 7.11616 24.2664C6.9236 24.009 6.97599 23.6432 7.23352 23.4501C7.41809 23.3111 7.6061 23.1436 7.79067 22.9591C7.32698 22.3193 7 21.5902 7 21C7 19.6687 8.06187 18.6666 8.75 18.6666C9.42676 18.6666 10.5 19.1418 10.5 20.4166C10.5 21.1595 9.98386 22.1205 9.34128 22.9505C9.57939 23.1727 9.7959 23.3202 9.92234 23.3333C10.0511 23.2427 10.4054 22.5215 10.5763 22.1752C10.9249 21.4676 11.155 20.9999 11.6666 20.9999C12.2648 20.9999 12.4505 21.6203 12.6875 22.4059C12.757 22.6388 12.8721 23.0228 12.9735 23.2524C13.4018 22.963 14.4831 22.0116 15.341 21.1674C15.5711 20.9424 15.9403 20.9435 16.1658 21.1742C16.3914 21.4039 16.3892 21.773 16.159 21.9992ZM20.4166 17.5H12.25C11.9276 17.5 11.6666 17.2391 11.6666 16.9166C11.6666 16.5942 11.9276 16.3333 12.25 16.3333H20.4166C20.7391 16.3333 21 16.5942 21 16.9166C21 17.2391 20.7391 17.5 20.4166 17.5ZM20.4166 14H7.58335C7.26091 14 7 13.7391 7 13.4166C7 13.0942 7.26091 12.8333 7.58335 12.8333H20.4167C20.7391 12.8333 21.0001 13.0942 21.0001 13.4166C21 13.7391 20.7391 14 20.4166 14ZM20.4166 10.5H7.58335C7.26091 10.5 7 10.2391 7 9.91665C7 9.59421 7.26091 9.3333 7.58335 9.3333H20.4167C20.7391 9.3333 21.0001 9.59421 21.0001 9.91665C21 10.2391 20.7391 10.5 20.4166 10.5ZM19.8334 5.83335C19.1896 5.83335 18.6667 5.30983 18.6667 4.6667V1.99155L22.5085 5.83335H19.8334Z" fill="#2F9AAA"/>
<path d="M8.75132 19.8334C8.6898 19.8721 8.16797 20.2885 8.16797 21C8.16797 21.2985 8.33657 21.6734 8.57359 22.0345C9.02022 21.4165 9.33467 20.7887 9.33467 20.4167C9.33467 19.8613 8.84817 19.8334 8.75132 19.8334Z" fill="#2F9AAA"/>
</svg>
