<svg width="30" height="30" viewBox="0 0 30 30" fill="none" xmlns="http://www.w3.org/2000/svg">
<g clip-path="url(#clip0)">
<path d="M20.2465 13.7914C20.0604 14.0775 19.9609 14.4152 19.9609 14.7565C19.9609 15.3234 20.2398 15.8656 20.6999 16.1966C21.1666 16.5321 21.7835 16.6196 22.3253 16.4276C22.8519 16.2409 23.2694 15.8034 23.4306 15.2684C23.5963 14.7183 23.4801 14.1075 23.1236 13.6572C22.7701 13.2109 22.2133 12.9584 21.6448 12.9864C21.081 13.0139 20.5542 13.3182 20.2465 13.7914Z" fill="#2F9AAA"/>
<path d="M25.0572 20.8322C25.0607 20.9292 25.0549 20.7349 25.0572 20.8322V20.8322Z" fill="#2F9AAA"/>
<path d="M9.11948 7.77088C9.54061 7.99746 10.0157 8.11592 10.4938 8.11592C11.6299 8.11592 12.6859 7.42975 13.1482 6.39187C13.6164 5.34051 13.4044 4.07733 12.6215 3.23503C11.8391 2.39316 10.5985 2.08897 9.51549 2.47634C8.45059 2.85722 7.68626 3.85547 7.59843 4.98309C7.50979 6.12113 8.11406 7.22976 9.11948 7.77088Z" fill="#2F9AAA"/>
<path d="M14.1329 5.28562C14.6874 5.786 15.418 6.06654 16.1648 6.06654C17.2996 6.06654 18.3626 5.41162 18.8741 4.39878C19.3928 3.37211 19.2741 2.10391 18.5754 1.1908C17.8792 0.28081 16.701 -0.165118 15.5764 0.0558857C14.4726 0.272786 13.5571 1.11503 13.2476 2.19634C12.9318 3.30044 13.2807 4.51651 14.1329 5.28562Z" fill="#2F9AAA"/>
<path d="M24.0147 21.3526C24.0443 21.628 24.2924 21.8371 24.5685 21.8211C24.8413 21.8054 25.0613 21.5735 25.0636 21.3004C25.0649 21.1438 25.0627 20.9885 25.0572 20.832C25.0488 20.4657 24.9747 20.0859 24.8679 19.736C24.7759 19.4344 24.6575 19.141 24.507 18.8638C24.1391 18.1862 23.6136 17.5975 22.9824 17.1545C22.8349 17.0511 22.6786 16.943 22.5098 16.8775C22.0307 16.6429 21.456 16.6402 20.9746 16.8699C20.8455 16.9153 20.7264 16.9915 20.6121 17.0654C20.4697 17.1573 20.3333 17.2582 20.2017 17.3649C19.8957 17.6132 19.6182 17.898 19.3784 18.2106C18.9582 18.7581 18.6475 19.4005 18.507 20.0778C18.4229 20.4837 18.3956 20.8869 18.3987 21.3005C18.4007 21.5774 18.627 21.8103 18.9033 21.8217C19.1763 21.8331 19.4181 21.6241 19.4476 21.3527C19.5095 20.7692 19.6486 20.1948 19.9685 19.6944V20.2627L18.7979 24.9909C18.7454 25.1948 18.7108 25.4057 19.1086 25.4057H20.081L20.2614 29.3536C20.2772 29.6767 20.5522 29.9401 20.8761 29.9398C21.1974 29.9394 21.4701 29.68 21.4877 29.3592L21.7063 25.4056H21.7718L21.9521 29.3535C21.9679 29.6767 22.243 29.94 22.5668 29.9397C22.8881 29.9393 23.1609 29.6799 23.1786 29.3592L23.397 25.4056H24.3483C24.4524 25.4056 24.5502 25.3595 24.6165 25.2793C24.6829 25.1988 24.7097 25.0941 24.6893 24.9898L23.5 20.2439V19.7044C23.8229 20.193 23.9541 20.7797 24.0147 21.3526Z" fill="#2F9AAA"/>
<path d="M18.4412 25.2167L18.845 23.4687L18.8999 22.3841C18.3962 22.2573 18.0307 21.8057 18.027 21.2733C18.0227 20.7856 18.0589 20.3083 18.1693 19.8325C18.2797 19.3566 18.4571 18.9056 18.6895 18.4769C18.8272 18.2229 18.9909 17.9815 19.1688 17.7543C19.1906 17.5561 19.187 17.3573 19.187 17.1582C19.187 16.8791 19.187 16.5999 19.187 16.3207C19.187 15.5171 19.187 14.7134 19.187 13.9097C19.187 13.3342 19.187 12.7588 19.187 12.1833C19.187 12.1532 19.187 12.1231 19.187 12.093C19.4436 12.6461 19.6232 13.2253 19.7692 13.8163C20.0849 13.0466 20.7616 12.6569 21.6974 12.5023C21.5428 11.9017 21.2981 11.1533 21.0392 10.5882C20.7085 9.86701 20.3072 9.18274 19.8064 8.56561C19.4794 8.1625 19.1138 7.79222 18.7176 7.45716C18.5243 7.29649 18.3233 7.14415 18.1132 7.00603C17.9366 6.89001 17.747 6.78723 17.5556 6.69627C15.5653 5.75051 13.9852 7.28694 13.946 7.32161C13.5213 7.69887 13.0966 8.07613 12.6719 8.45352C13.7925 9.24339 14.7189 10.2922 15.3683 11.4985C15.784 12.2707 16.0723 13.1206 16.2152 13.9855C16.3123 14.5735 16.3396 15.1611 16.3347 15.7566C16.3279 16.567 15.6413 17.243 14.8305 17.236C14.7075 17.235 14.5879 17.2192 14.4734 17.1899C14.4734 17.1899 15.5901 21.2632 15.6533 21.5233C15.7389 21.8755 15.7682 22.6078 14.9527 22.6078C14.0416 22.6078 13.599 22.6078 13.599 22.6078L13.4954 24.4364L13.6818 28.9013C13.7068 29.4551 14.1768 29.9078 14.7317 29.9082C15.2842 29.9087 15.7533 29.4619 15.7811 28.9104L16.1588 21.4301L16.471 28.9013C16.496 29.4551 16.966 29.9078 17.5208 29.9082C18.0734 29.9086 18.5424 29.4618 18.5703 28.9103L18.7345 25.6611C18.3065 25.6274 18.4412 25.2167 18.4412 25.2167Z" fill="#2F9AAA"/>
<path d="M14.7924 22.2866C14.9484 22.2866 15.095 22.2176 15.1944 22.0972C15.2939 21.9767 15.3372 21.8393 15.3035 21.6634L13.2955 14.3808V13.2279C13.5863 13.6768 13.7919 14.1949 13.9302 14.7097C14.038 15.1109 14.0943 15.5165 14.1382 15.9287C14.1865 16.378 14.59 16.72 15.0406 16.6967C15.4897 16.6735 15.8534 16.2926 15.857 15.8431C15.8593 15.5663 15.8571 15.2915 15.8435 15.0149C15.825 14.6352 15.7658 14.2551 15.6886 13.8833C15.5274 13.108 15.2404 12.3561 14.8458 11.6694C14.4509 10.9819 13.952 10.3558 13.3768 9.8105C13.1004 9.54846 12.8054 9.30515 12.4954 9.08391C12.2582 8.9146 12.0099 8.74597 11.744 8.62499C11.7203 8.61421 11.6962 8.60472 11.6719 8.59547C10.8869 8.21128 9.94554 8.20651 9.1569 8.58309C8.87673 8.68165 8.61915 8.85978 8.37702 9.02798C8.07038 9.2409 7.77955 9.47605 7.5044 9.72824C6.9182 10.2654 6.41837 10.8868 6.00784 11.5668C5.80234 11.9072 5.62666 12.2686 5.47904 12.6377C5.33454 12.9994 5.20818 13.3796 5.12959 13.7616C5.051 14.143 4.99366 14.5221 4.95648 14.9098C4.92714 15.2157 4.93351 15.5242 4.93578 15.831C4.9359 15.835 4.9359 15.8392 4.9359 15.8433C4.93927 16.2954 5.30716 16.6759 5.7583 16.697C6.20729 16.7181 6.60642 16.3753 6.65474 15.9287C6.69891 15.5165 6.75514 15.1109 6.86276 14.7098C7.00359 14.1857 7.21571 13.6697 7.50807 13.2113V14.2932L5.49423 21.665C5.46409 21.8186 5.50391 21.9758 5.60314 22.0966C5.70255 22.2174 5.84932 22.2867 6.00576 22.2867H7.68197L7.9883 29.0395C8.01415 29.5673 8.46216 29.9984 8.99121 30C9.5194 30.0016 9.969 29.5761 9.99798 29.0491L10.3687 22.2869H10.4529L10.7591 29.0396C10.785 29.5674 11.2331 29.9985 11.762 30.0001C12.2902 30.0017 12.7399 29.5762 12.7689 29.0492L13.1396 22.287H14.7924V22.2866Z" fill="#2F9AAA"/>
</g>
<defs>
<clipPath id="clip0">
<rect width="30" height="30.0001" fill="white"/>
</clipPath>
</defs>
</svg>
