<svg width="30" height="30" viewBox="0 0 30 30" fill="none" xmlns="http://www.w3.org/2000/svg">
<g clip-path="url(#clip0)">
<path d="M29.4351 10.3897C29.3522 10.3537 27.3321 9.47856 15.3718 4.29561C15.1339 4.19248 14.8644 4.19248 14.6265 4.29561L0.563236 10.3897C-0.191374 10.716 -0.184108 11.7872 0.563236 12.1101C3.29526 13.2938 7.76157 15.2294 14.6265 18.2042C14.863 18.3067 15.1325 18.3079 15.3718 18.2042C16.0237 17.9217 24.9062 14.0726 25.3122 13.8967V23.8805C25.3122 24.3855 25.7005 24.8199 26.2049 24.8433C26.7433 24.8684 27.1873 24.4397 27.1873 23.9068V13.5567C27.1873 13.4094 27.0782 13.285 26.932 13.2661C25.1723 13.0394 16.8733 11.9682 14.879 11.711C14.3022 11.639 13.9428 11.0549 14.0944 10.535C14.2134 10.0959 14.6302 9.81625 15.0525 9.84532C15.0945 9.84778 28.4553 11.5719 28.4458 11.5707C28.6954 11.6028 28.9006 11.7627 28.9992 11.9794C29.0681 12.1309 29.2435 12.2004 29.3942 12.1297C29.6465 12.0115 29.8653 11.8558 29.9648 11.5036C30.0929 11.0472 29.8614 10.574 29.4351 10.3897Z" fill="#2F9AAA"/>
<path d="M13.8819 19.9246L6.03447 16.5241C5.84099 16.4403 5.625 16.5821 5.625 16.793V20.1567C5.625 23.3109 9.74319 25.782 15.0005 25.782C20.2578 25.782 24.376 23.3109 24.376 20.1567V16.793C24.376 16.5821 24.16 16.4403 23.9665 16.5241L16.1185 19.9246C15.406 20.2344 14.5951 20.2341 13.8819 19.9246Z" fill="#2F9AAA"/>
</g>
<defs>
<clipPath id="clip0">
<rect width="30" height="30" fill="white"/>
</clipPath>
</defs>
</svg>
