<svg width="33" height="33" viewBox="0 0 33 33" fill="none" xmlns="http://www.w3.org/2000/svg">
<path d="M31.1535 25.3811C31.1923 25.2651 31.2143 25.1408 31.2143 25.0116V11.4432C31.2143 10.8 30.6926 10.2787 30.0494 10.2787H23.566V24.7208C23.566 24.9526 23.5241 25.1743 23.4501 25.3811H22.6895C22.7283 25.2651 22.7503 25.1408 22.7503 25.0116V6.37652C22.7503 5.73331 22.2286 5.21198 21.5854 5.21198H11.4139C10.7707 5.21198 10.2494 5.73331 10.2494 6.37652V25.0116C10.2494 25.1408 10.2714 25.2651 10.3101 25.3811H9.54994C9.47591 25.1743 9.43401 24.9526 9.43401 24.7208V10.2787H3.10603C2.46282 10.2787 1.94148 10.8 1.94148 11.4432V25.0116C1.94148 25.1408 1.96348 25.2651 2.00189 25.3811H0V27.7884H33V25.3811H31.1535ZM5.43511 20.6244H3.76564V18.9553H5.43511V20.6244ZM5.43511 17.6937H3.76564V16.0242H5.43511V17.6937ZM5.43511 14.8597H3.76564V13.1902H5.43511V14.8597ZM8.03656 20.6244H6.36709V18.9553H8.03656V20.6244ZM8.03656 17.6937H6.36709V16.0242H8.03656V17.6937ZM8.03656 14.8597H6.36709V13.1902H8.03656V14.8597ZM19.0915 25.3032H14.1899V19.1882H19.0915V25.3032ZM16.4998 13.9469C14.2325 13.9469 12.3944 12.1088 12.3944 9.84151C12.3944 7.57388 14.2329 5.73576 16.4998 5.73576C18.7675 5.73576 20.6056 7.57388 20.6056 9.84151C20.6056 12.1091 18.7675 13.9469 16.4998 13.9469ZM27.0987 20.6244H25.4296V18.9553H27.0987V20.6244ZM27.0987 17.6937H25.4296V16.0242H27.0987V17.6937ZM27.0987 14.8597H25.4296V13.1902H27.0987V14.8597ZM29.6998 20.6244H28.0307V18.9553H29.6998V20.6244ZM29.6998 17.6937H28.0307V16.0242H29.6998V17.6937ZM29.6998 14.8597H28.0307V13.1902H29.6998V14.8597ZM17.5188 8.82258H19.0911V10.8604H17.5188V12.4335H15.4809V10.8604H13.9085V8.82258H15.4809V7.25019H17.5188V8.82258Z" fill="#2F9AAA"/>
</svg>
