<svg width="35" height="35" viewBox="0 0 35 35" fill="none" xmlns="http://www.w3.org/2000/svg">
<path d="M18.0468 21.3281V19.1406C18.3369 19.1406 18.6151 19.2558 18.8202 19.4609C19.0253 19.6661 19.1406 19.9443 19.1406 20.2343C19.1406 20.5244 19.0253 20.8026 18.8202 21.0077C18.6151 21.2129 18.3369 21.3281 18.0468 21.3281ZM10.8902 32.1777C11.7259 32.5941 12.6466 32.8113 13.5802 32.8125H24.6093V26.0282C23.5419 25.4772 22.3557 25.1962 21.1545 25.21C19.9534 25.2238 18.7739 25.5319 17.7194 26.1073L17.5779 26.1839C17.498 26.2273 17.4084 26.25 17.3174 26.25H13.1249C12.8349 26.25 12.5567 26.3652 12.3515 26.5703C12.1464 26.7754 12.0312 27.0536 12.0312 27.3437C12.0312 27.6338 12.1464 27.912 12.3515 28.1171C12.5567 28.3222 12.8349 28.4375 13.1249 28.4375H18.0468V29.5312H12.0312C11.9526 29.5312 11.8749 29.5143 11.8034 29.4815L5.58525 26.6332C5.41193 26.5543 5.22282 26.5161 5.03245 26.5218C4.84209 26.5274 4.65556 26.5766 4.48719 26.6656C4.45353 26.683 4.4208 26.7022 4.38916 26.723C4.21701 26.836 4.07561 26.9899 3.97767 27.1711C3.87973 27.3522 3.82833 27.5548 3.82807 27.7607V27.8797C3.82732 28.1102 3.89116 28.3364 4.01235 28.5326C4.13354 28.7288 4.30724 28.8871 4.51378 28.9896L10.8902 32.1777ZM2.33859 15.3569C1.83916 18.8843 2.58659 22.4754 4.45192 25.5107C4.98014 25.3668 5.54203 25.4121 6.04039 25.6387L7.88609 26.484C7.91042 26.4365 7.93656 26.3898 7.9645 26.3442C6.73095 25.011 5.78754 23.4364 5.19396 21.7199C4.63792 20.0929 4.40904 18.3721 4.52049 16.6564C4.63194 14.9407 5.08152 13.264 5.84337 11.7227C5.87912 11.6506 5.93035 11.5872 5.9934 11.5372C6.05645 11.4872 6.12977 11.4517 6.20813 11.4332C6.28649 11.4148 6.36794 11.4139 6.44669 11.4306C6.52544 11.4473 6.59953 11.4811 6.66369 11.5297L6.84962 11.6706L6.86603 8.02543L3.36234 9.03031L3.91468 9.44826C4.01929 9.52742 4.09195 9.64155 4.11942 9.76982C4.14689 9.8981 4.12733 10.032 4.06432 10.147C3.17879 11.765 2.59409 13.5302 2.33859 15.3569ZM16.9531 18.0468V15.8593C16.663 15.8593 16.3848 15.9746 16.1797 16.1797C15.9746 16.3848 15.8593 16.663 15.8593 16.9531C15.8593 17.2432 15.9746 17.5214 16.1797 17.7265C16.3848 17.9316 16.663 18.0468 16.9531 18.0468ZM27.027 26.25L27.0202 27.6954C27.0198 27.7803 27.0392 27.8641 27.0768 27.9402C27.1145 28.0163 27.1693 28.0826 27.237 28.1339C27.3047 28.1851 27.3834 28.2199 27.4669 28.2354C27.5503 28.251 27.6363 28.2469 27.7179 28.2234L31.1718 27.2328V32.8125H25.7031V26.25H27.027ZM26.7968 30.625C26.7968 30.8413 26.861 31.0528 26.9812 31.2326C27.1013 31.4125 27.2722 31.5527 27.472 31.6355C27.6719 31.7182 27.8918 31.7399 28.104 31.6977C28.3161 31.6555 28.511 31.5513 28.664 31.3984C28.8169 31.2454 28.9211 31.0505 28.9633 30.8383C29.0055 30.6262 28.9839 30.4063 28.9011 30.2064C28.8183 30.0066 28.6781 29.8357 28.4982 29.7155C28.3184 29.5954 28.1069 29.5312 27.8906 29.5312C27.6006 29.5316 27.3226 29.6469 27.1176 29.8519C26.9125 30.057 26.7972 30.335 26.7968 30.625ZM19.6417 2.33895C16.0077 1.82089 12.3087 2.62996 9.22279 4.61785L10.4595 6.56247C13.0822 4.86834 16.2287 4.17887 19.3195 4.62106C26.4208 5.62417 31.3818 12.2179 30.3784 19.3193C30.1849 20.6978 29.7711 22.0363 29.1529 23.2835C29.1171 23.3556 29.0659 23.4189 29.0029 23.4689C28.9399 23.5189 28.8666 23.5544 28.7883 23.5728C28.71 23.5912 28.6286 23.5922 28.5499 23.5755C28.4712 23.5589 28.3971 23.5251 28.333 23.4766L28.1339 23.3262L28.1175 26.9714L31.6216 25.9665L31.0806 25.557C30.976 25.4778 30.9034 25.3637 30.8759 25.2354C30.8485 25.1071 30.8681 24.9732 30.9311 24.8582C32.1205 22.6856 32.7653 20.257 32.8101 17.7806C32.855 15.3042 32.2985 12.8539 31.1885 10.6397C30.0785 8.42555 28.448 6.51364 26.4369 5.0679C24.4259 3.62217 22.0941 2.68575 19.6417 2.33895ZM15.9584 10.8727C15.9898 10.7948 16.0028 10.7108 15.9966 10.6271C15.9903 10.5433 15.9648 10.4622 15.9221 10.3899L14.6302 8.20309H20.3697L19.0777 10.3899C19.035 10.4622 19.0096 10.5433 19.0032 10.627C18.9969 10.7108 19.01 10.7948 19.0414 10.8727C19.0728 10.9505 19.1217 11.0201 19.1843 11.076C19.247 11.1319 19.3216 11.1727 19.4025 11.1951C20.8984 11.6139 22.2166 12.5098 23.1565 13.7467C24.0963 14.9835 24.6065 16.4934 24.6093 18.0468V24.8191C23.4306 24.3051 22.15 24.0673 20.8653 24.124C19.5806 24.1807 18.3259 24.5304 17.197 25.1463L17.1787 25.1562H13.1249C12.7889 25.1566 12.4575 25.2343 12.1563 25.3833C11.8551 25.5322 11.5923 25.7485 11.3881 26.0154C11.1838 26.2822 11.0438 26.5925 10.9787 26.9221C10.9136 27.2518 10.9252 27.592 11.0126 27.9164L8.88277 26.9404C8.92664 26.8635 8.98052 26.7928 9.043 26.7301L10.2304 25.5427C10.3329 25.4402 10.3905 25.3012 10.3906 25.1562V18.0468C10.3934 16.4934 10.9035 14.9835 11.8434 13.7467C12.7833 12.5099 14.1014 11.6139 15.5973 11.1951C15.6782 11.1727 15.7528 11.1319 15.8155 11.076C15.8781 11.0201 15.927 10.9505 15.9584 10.8727ZM13.8504 14.7482L13.0394 14.0144C12.0381 15.1187 11.4838 16.5562 11.4843 18.0468V18.5937H12.5781V18.0468C12.5777 16.8274 13.0312 15.6515 13.8504 14.7482ZM14.5476 14.1115C14.8007 13.921 15.0716 13.7554 15.3564 13.6168L14.8779 12.6331C14.5299 12.8024 14.1989 13.0048 13.8897 13.2375L14.5476 14.1115ZM14.7656 16.9531C14.7662 17.5331 14.9969 18.0891 15.407 18.4992C15.8171 18.9093 16.3731 19.1399 16.9531 19.1406V21.3281C16.6631 21.3277 16.3851 21.2124 16.1801 21.0074C15.975 20.8023 15.8597 20.5243 15.8593 20.2343H14.7656C14.7662 20.8143 14.9969 21.3703 15.407 21.7804C15.8171 22.1905 16.3731 22.4212 16.9531 22.4218V23.5156H18.0468V22.4218C18.627 22.4218 19.1834 22.1914 19.5936 21.7811C20.0039 21.3709 20.2343 20.8145 20.2343 20.2343C20.2343 19.6542 20.0039 19.0978 19.5936 18.6875C19.1834 18.2773 18.627 18.0468 18.0468 18.0468V15.8593C18.3368 15.8597 18.6148 15.975 18.8198 16.1801C19.0249 16.3851 19.1402 16.6631 19.1406 16.9531H20.2343C20.2337 16.3731 20.003 15.8171 19.5929 15.407C19.1828 14.9969 18.6268 14.7662 18.0468 14.7656V13.6718H16.9531V14.7656C16.3731 14.7662 15.8171 14.9969 15.407 15.407C14.9969 15.8171 14.7662 16.3731 14.7656 16.9531Z" fill="#2F9AAA"/>
</svg>
