<svg width="24" height="28" viewBox="0 0 24 28" fill="none" xmlns="http://www.w3.org/2000/svg">
<path fill-rule="evenodd" clip-rule="evenodd" d="M16.6455 6.74407C16.6455 10.4687 13.763 13.4881 10.2072 13.4881C6.65138 13.4881 3.76888 10.4687 3.76888 6.74407C3.76888 3.01942 6.65138 0 10.2072 0C13.763 0 16.6455 3.01942 16.6455 6.74407ZM10.1695 3.34462L10.0931 4.05619C9.81256 4.06077 9.56669 4.0815 9.35547 4.11838C9.1142 4.16049 8.91576 4.23681 8.75996 4.34735C8.60927 4.45788 8.49865 4.61316 8.42831 4.81318C8.35798 5.00794 8.32281 5.26322 8.32281 5.57904C8.32281 5.98435 8.40316 6.31069 8.56398 6.55809C8.7298 6.80548 9.0087 7.0055 9.40066 7.15815L10.4333 7.53713C10.559 7.57397 10.6569 7.61609 10.7273 7.66346C10.8027 7.70557 10.8555 7.7661 10.8856 7.84505C10.9208 7.91874 10.9384 8.01876 10.9384 8.14508C10.9384 8.29247 10.9157 8.403 10.8705 8.47669C10.8253 8.55038 10.7448 8.60039 10.6293 8.62671C10.5187 8.65303 10.3654 8.66619 10.1695 8.66619H9.77003C9.61423 8.66619 9.42827 8.66356 9.21224 8.65829C8.99612 8.64776 8.74238 8.63987 8.45091 8.6346L8.38312 9.49521C8.78511 9.58996 9.14191 9.64786 9.45341 9.66891L9.535 9.67563L9.46098 10.5453H10.2977L10.3691 9.70561C10.6381 9.69759 10.8705 9.6722 11.0665 9.62944C11.3076 9.58206 11.5036 9.50047 11.6544 9.38468C11.8051 9.26887 11.9132 9.10833 11.9785 8.90305C12.0488 8.69777 12.084 8.43985 12.084 8.12929C12.084 7.71873 12.0036 7.38712 11.8428 7.13446C11.682 6.8818 11.3981 6.68178 10.9911 6.5344L10.0188 6.1949C9.81277 6.12647 9.66698 6.05014 9.58162 5.96592C9.50116 5.88171 9.46098 5.74748 9.46098 5.56325C9.46098 5.44219 9.47355 5.34744 9.4987 5.27902C9.52375 5.21059 9.56649 5.16058 9.6268 5.129C9.68712 5.09215 9.76503 5.0711 9.86051 5.06584C9.92287 5.05896 9.99382 5.05433 10.0734 5.05194C10.1156 5.05068 10.1602 5.05005 10.2072 5.05005C10.4886 5.05005 10.775 5.05268 11.0665 5.05795C11.2742 5.06163 11.4622 5.06532 11.6304 5.06901L11.8353 5.07373L11.9107 4.27629C11.6293 4.18681 11.3404 4.1289 11.0439 4.10259L11.0013 4.09814L10.9261 4.09077L11.0061 3.34462H10.1695ZM20.0175 5.31927C20.0612 4.88259 19.7588 4.49142 19.3419 4.44556C18.925 4.39971 18.5516 4.71654 18.5078 5.15322L17.4865 15.343L6.11117 14.3135C5.69355 14.2757 5.32571 14.5997 5.28962 15.0372C5.25363 15.4746 5.56289 15.8599 5.98052 15.8977L18.8405 17.0615L20.0175 5.31927ZM18.704 18.8693L6.08418 17.5686L3.9388 24.6497C2.75288 24.174 1.8158 23.6713 1.16886 23.2366C0.816052 22.9995 0.346593 23.107 0.120246 23.4765C-0.1061 23.8461 -0.00355938 24.3379 0.349353 24.575C1.24462 25.1766 2.54923 25.8459 4.17659 26.4313C7.84026 27.7493 13.2224 28.6719 19.4114 27.3757C20.7365 27.0982 22.0979 26.719 23.4868 26.2206C23.8834 26.0783 24.0947 25.6261 23.9588 25.2108C23.8229 24.7954 23.3913 24.574 22.9949 24.7163C21.9342 25.097 20.8913 25.4043 19.8706 25.6472L18.704 18.8693ZM18.3819 25.9597C13.1884 26.9054 8.64423 26.2261 5.37437 25.1681L6.88335 20.334L17.4865 21.4111L18.3819 25.9597Z" fill="#2F9AAA"/>
</svg>
