<svg width="25" height="25" viewBox="0 0 25 25" fill="none" xmlns="http://www.w3.org/2000/svg">
<path d="M24.9766 8.40469L23.5625 2.74531C23.3891 2.05 22.7641 1.5625 22.0469 1.5625H2.95469C2.2375 1.5625 1.6125 2.05 1.4375 2.74531L0.0234375 8.40469C0.0078125 8.46563 0 8.52969 0 8.59375C0 10.7469 1.66406 12.5 3.71094 12.5C4.9 12.5 5.96094 11.9078 6.64062 10.9891C7.32031 11.9078 8.38125 12.5 9.57031 12.5C10.7594 12.5 11.8203 11.9078 12.5 10.9891C13.1797 11.9078 14.2391 12.5 15.4297 12.5C16.6203 12.5 17.6797 11.9078 18.3594 10.9891C19.0391 11.9078 20.0984 12.5 21.2891 12.5C23.3359 12.5 25 10.7469 25 8.59375C25 8.52969 24.9922 8.46563 24.9766 8.40469Z" fill="#2F9AAA"/>
<path d="M21.2891 14.0625C20.225 14.0625 19.2141 13.7375 18.3594 13.1438C16.65 14.3329 14.2094 14.3329 12.5 13.1438C10.7906 14.3329 8.35 14.3329 6.64062 13.1438C5.78594 13.7375 4.775 14.0625 3.71094 14.0625C2.94375 14.0625 2.22031 13.8829 1.5625 13.5766V21.875C1.5625 22.7375 2.2625 23.4375 3.125 23.4375H9.375V17.1875H15.625V23.4375H21.875C22.7375 23.4375 23.4375 22.7375 23.4375 21.875V13.5766C22.7797 13.8829 22.0562 14.0625 21.2891 14.0625Z" fill="#2F9AAA"/>
</svg>
