<svg width="24" height="24" viewBox="0 0 24 24" fill="none" xmlns="http://www.w3.org/2000/svg">
<path d="M12.0039 7.12631C12.3086 7.12631 12.8961 6.76684 13.7502 6.05772C14.34 5.56806 15.0773 4.88203 15.3775 4.42549C15.6051 4.07949 15.8615 3.59282 15.8242 2.89554C15.7622 1.73638 14.8269 0.828369 13.695 0.828369C12.8881 0.828369 12.3222 1.42389 12.0088 1.76534C11.7115 1.42929 11.1407 0.828369 10.3065 0.828369C9.17468 0.828369 8.2394 1.73638 8.17733 2.89561C8.1396 3.60199 8.41429 4.1072 8.62425 4.42575C9.08808 5.12986 11.3292 7.12631 12.0039 7.12631Z" fill="#2F9AAA"/>
<path d="M16.3918 7.95526C14.7573 7.95526 13.2415 8.47355 12 9.35417C10.7586 8.47349 9.24281 7.95526 7.60824 7.95526C3.41306 7.95526 0 11.3683 0 15.5634C0 19.7585 3.41306 23.1716 7.60817 23.1716C9.24274 23.1716 10.7585 22.6534 12 21.7727C13.2414 22.6534 14.7572 23.1716 16.3918 23.1716C20.5869 23.1716 23.9999 19.7586 23.9999 15.5634C23.9999 11.3683 20.5869 7.95526 16.3918 7.95526ZM12 19.1235C11.2099 18.1507 10.7355 16.9115 10.7355 15.5634C10.7355 14.2154 11.2098 12.9762 12 12.0033C12.7902 12.9762 13.2645 14.2153 13.2645 15.5634C13.2645 16.9115 12.7902 18.1507 12 19.1235ZM1.95188 15.5634C1.95188 12.4445 4.48933 9.90708 7.60817 9.90708C8.67585 9.90708 9.67528 10.2045 10.5282 10.7208C9.43897 12.0373 8.78366 13.7252 8.78366 15.5634C8.78366 17.4015 9.43897 19.0894 10.5282 20.406C9.67528 20.9222 8.67585 21.2197 7.60817 21.2197C4.48933 21.2197 1.95188 18.6823 1.95188 15.5634ZM16.3918 21.2197C15.3242 21.2197 14.3247 20.9223 13.4718 20.4061C14.561 19.0895 15.2163 17.4016 15.2163 15.5634C15.2163 13.7253 14.561 12.0373 13.4718 10.7208C14.3247 10.2046 15.3242 9.90714 16.3918 9.90714C19.5107 9.90714 22.0481 12.4446 22.0481 15.5635C22.0481 18.6824 19.5107 21.2197 16.3918 21.2197Z" fill="#2F9AAA"/>
</svg>
